<svg xmlns="http://www.w3.org/2000/svg" viewBox="0 0 512 512">
  <defs><linearGradient id="g" x1="0" y1="0" x2="1" y2="1">
    <stop offset="0" stop-color="#4338CA"/><stop offset="1" stop-color="#6D28D9"/></linearGradient></defs>
  <rect width="512" height="512" rx="112" fill="url(#g)"/>
  <g transform="translate(96 96) scale(13.33)" fill="#fff" stroke="#fff">
    <path d="M16.4 3h4.1a1 1 0 0 1 1 1v5.6a1 1 0 0 1-1 1h-4.1z" stroke="none"/>
    <ellipse cx="11.8" cy="6" rx="4.2" ry="2.7" fill="none" stroke-width="2"/>
    <path d="M2.6 11.6h14.8a1 1 0 0 1 1 1.1c-.3 3.2-2.3 5.6-5.2 6.4l.8 2.9H7l.8-2.9c-2.9-.8-4.9-3.2-5.2-6.4a1 1 0 0 1 1-1.1z" stroke="none"/>
  </g>
</svg>